<?xml version="1.0" standalone="no"?>
<!DOCTYPE svg PUBLIC "-//W3C//DTD SVG 1.1//EN" "http://www.w3.org/Graphics/SVG/1.1/DTD/svg11.dtd">
<svg xmlns="http://www.w3.org/2000/svg">
<defs >
<font id="Antonio" horiz-adv-x="887" ><font-face
    font-family="Antonio"
    units-per-em="2048"
    panose-1="0 0 0 0 0 0 0 0 0 0"
    ascent="2365"
    descent="-285"
    alphabetic="0" />
<glyph unicode=" " horiz-adv-x="367" />
<glyph unicode="!" horiz-adv-x="514" d="M204 423L115 1760H399L314 423H204ZM126 0V256H386V0H126Z" />
<glyph unicode="&quot;" horiz-adv-x="944" d="M241 1125L170 1760H415L349 1125H241ZM606 1125L536 1760H780L714 1125H606Z" />
<glyph unicode="#" horiz-adv-x="1288" d="M153 0L266 579H140V753H300L355 1031H207V1204H389L501 1760H718L605 1204H793L905 1760H1122L1011 1204H1134V1031H977L922 753H1067V579H887L773 0H557L670 579H482L369 0H153ZM516 752H705L760 1028H571L516 752Z" />
<glyph unicode="$" horiz-adv-x="902" d="M405 -220V53H549V-220H405ZM396 1504V1760H540V1504H396ZM442 3Q261 3 173 106T85 443V540H334V419Q334 321 358 270T436 219Q488 219 513 254T538 375Q538 425 524 472T479 564T400 653L265 775Q172 859 126 956T80
1172Q80 1363 169 1451T435 1540Q549 1540 624 1498T736 1360T773 1105V1023H536V1122Q536 1221 514 1272T437 1323Q384 1323 359 1294T332 1190Q331 1150 342 1112T376 1037T438 965L580 836Q692 735 745 625T799 387Q799 198 713 101T442 3Z" />
<glyph unicode="%" horiz-adv-x="2209" d="M662 0L1347 1760H1551L875 0H662ZM468 580Q350 580 275 625T165 765T130 1005V1363Q130 1511 163 1603T271 1738T468 1781Q591 1781 665 1738T772 1603T806 1363V1005Q806 859 771 765T662 626T468 580ZM468 768Q533
768 556 809T580 939V1431Q580 1518 558 1556T468 1594Q401 1594 379 1556T356 1431V939Q356 851 379 810T468 768ZM1741 -21Q1623 -21 1548 24T1438 164T1403 404V762Q1403 910 1436 1002T1544 1137T1741 1180Q1864 1180 1938 1137T2046 1002T2080 762V404Q2080
258 2045 164T1935 25T1741 -21ZM1741 167Q1806 167 1830 208T1854 338V830Q1854 917 1832 955T1741 993Q1674 993 1652 955T1629 830V338Q1629 250 1652 209T1741 167Z" />
<glyph unicode="&amp;" horiz-adv-x="1052" d="M394 -20Q245 -20 159 82T73 378Q73 481 113 575T216 758T351 930Q290 1089 249 1223T208 1431Q208 1601 296 1691T531 1781Q637 1781 707 1741T812 1623T847 1434Q847 1341 814 1254T728 1084T613 922L742 601Q781
666 827 735T932 874L1041 690Q979 621 932 537T840 369L998 0H750L693 130Q656 86 613 52T515 -1T394 -20ZM439 209Q469 209 495 226T546 273T597 346L442 706Q403 654 372 603T321 502T300 403Q297 308 331 259T439 209ZM530 1144Q588 1219 625 1292T662 1438Q662
1524 641 1562T561 1600Q526 1600 504 1586T471 1549T455 1497T451 1441Q451 1401 472 1324T530 1144Z" />
<glyph unicode="&apos;" horiz-adv-x="423" d="M160 1125L100 1760H338L273 1125H160Z" />
<glyph unicode="(" horiz-adv-x="619" d="M534 -136Q422 -136 345 -117T220 -48T151 89T129 313V1374Q129 1510 150 1597T219 1734T344 1803T534 1823V1623Q489 1623 462 1613T420 1575T400 1501T395 1378V309Q395 234 400 187T419 112T461 75T534 64V-136Z" />
<glyph unicode=")" horiz-adv-x="619" d="M86 -136V64Q131 64 158 74T200 112T220 186T225 309V1378Q225 1453 220 1500T201 1575T159 1612T86 1623V1823Q198 1823 275 1804T400 1735T468 1598T490 1374V313Q490 177 469 90T400 -47T276 -116T86 -136Z" />
<glyph unicode="*" horiz-adv-x="960" d="M386 889L421 1180L190 998L95 1162L355 1285L91 1400L186 1564L420 1391L386 1673H574L546 1395L774 1568L869 1404L605 1285L869 1158L774 995L546 1174L574 889H386Z" />
<glyph unicode="+" horiz-adv-x="808" d="M312 421V654H94V831H312V1062H494V831H713V654H494V421H312Z" />
<glyph unicode="," horiz-adv-x="488" d="M172 -338L242 0H117V268H405V9L303 -338H172Z" />
<glyph unicode="-" horiz-adv-x="696" d="M89 661V836H567V661H89Z" />
<glyph unicode="." horiz-adv-x="532" d="M149 0V246H374V0H149Z" />
<glyph unicode="/" horiz-adv-x="826" d="M86 0L513 1769H748L320 0H86Z" />
<glyph unicode="0" horiz-adv-x="1010" d="M501 -21Q357 -21 270 38T143 208T103 475V1316Q103 1468 143 1571T272 1728T501 1781Q642 1781 729 1728T858 1572T899 1316V475Q899 358 877 266T808 110T685 13T501 -21ZM500 210Q529 210 553 219T594 256T621 334T631
470V1327Q631 1425 613 1472T565 1535T500 1550Q466 1550 437 1536T389 1475T370 1328V470Q370 385 378 334T404 255T445 219T500 210Z" />
<glyph unicode="1" horiz-adv-x="676" d="M258 0V1428Q234 1400 197 1381T119 1352T40 1342V1541Q93 1549 146 1575T245 1648T318 1760H526V0H258Z" />
<glyph unicode="2" horiz-adv-x="951" d="M160 0V104Q160 200 180 292T243 479T348 679L522 968Q540 998 554 1030T579 1102T594 1190T600 1304Q600 1401 589 1454T556 1528T504 1549Q474 1549 450 1531T411 1457T397 1288V1065H141V1173Q141 1363 166 1499T271
1707T511 1780Q636 1780 711 1714T820 1538T854 1293Q854 1211 840 1139T800 1004T743 884L581 596Q549 538 518 478T460 352T415 210H821V0H160Z" />
<glyph unicode="3" horiz-adv-x="960" d="M469 -20Q264 -20 185 102T105 474V589H356V467Q356 378 364 321T398 237T478 210Q531 210 558 242T594 340T604 504Q604 619 591 690T543 795T442 828H366V1032H440Q504 1032 539 1060T589 1151T604 1316Q604 1410 590
1460T549 1529T484 1549Q439 1549 413 1526T377 1451T366 1314V1261H107V1316Q107 1552 190 1666T478 1780Q678 1780 771 1664T864 1316Q864 1177 821 1077T683 941Q753 909 793 847T850 699T867 503Q867 246 777 113T469 -20Z" />
<glyph unicode="4" horiz-adv-x="951" d="M524 0V310H90V507L477 1760H763V526H899V310H763V0H524ZM297 526H524V1395L297 526Z" />
<glyph unicode="5" horiz-adv-x="951" d="M471 -20Q347 -20 270 24T158 150T122 343V564H373V371Q373 302 390 256T471 209Q528 209 549 252T571 382V832Q571 918 553 970T473 1023Q423 1023 396 981T369 852L133 872V1760H784V1520H380V1163Q399 1201 449 1223T557
1246Q663 1246 722 1184T806 994T831 668V632Q831 466 820 343T774 140T666 20T471 -20Z" />
<glyph unicode="6" horiz-adv-x="951" d="M499 -21Q377 -21 299 16T178 125T119 297T102 527V1250Q102 1451 146 1567T278 1732T502 1781Q619 1781 694 1738T807 1598T845 1336V1245H595V1281Q595 1380 589 1438T561 1522T489 1548Q438 1548 413 1522T379 1435T370
1270V1019Q399 1059 452 1080T569 1103Q689 1105 757 1047T853 871T881 580V483Q881 318 849 206T734 36T499 -21ZM499 212Q547 212 574 232T611 300T622 434V601Q622 699 612 758T575 844T504 871Q466 871 438 858T392 823T370 777V459Q370 374 381 320T421 239T499
212Z" />
<glyph unicode="7" horiz-adv-x="951" d="M208 0Q226 242 271 454T376 853T493 1203Q536 1337 567 1422T604 1526H104V1760H881V1566Q872 1486 816 1356T704 1046Q658 904 616 739T544 388T500 0H208Z" />
<glyph unicode="8" horiz-adv-x="951" d="M479 -21Q287 -21 191 90T95 431V557Q95 646 112 726T161 867T241 961Q167 1014 134 1114T100 1341Q100 1571 189 1676T479 1781Q683 1781 769 1679T856 1341Q856 1212 824 1113T716 961Q761 929 792 867T840 725T857
557V436Q857 204 765 92T479 -21ZM480 208Q530 208 553 232T583 309T590 442V586Q590 717 564 786T480 856Q426 856 394 788T361 585V438Q361 317 382 263T480 208ZM478 1033Q513 1033 537 1056T575 1141T589 1317Q589 1430 578 1484T543 1556T478 1573Q439 1573
415 1554T379 1479T368 1315Q368 1201 380 1140T418 1056T478 1033Z" />
<glyph unicode="9" horiz-adv-x="951" d="M441 -20Q331 -20 254 22T135 162T94 423V519H347V482Q347 376 355 317T388 234T460 210Q510 210 530 240T553 335T557 498V701Q532 685 492 675T394 664Q271 664 200 724T98 901T67 1184V1248Q67 1372 83 1470T141 1638T258
1744T450 1781Q572 1781 646 1745T759 1640T810 1468T823 1233V530Q823 329 784 209T661 34T441 -20ZM444 884Q478 884 499 889T534 902T557 920V1304Q557 1427 535 1487T446 1548Q398 1548 373 1521T339 1438T329 1301V1144Q329 1050 338 993T373 910T444 884Z"
/>
<glyph unicode=":" horiz-adv-x="555" d="M136 1038V1307H419V1038H136ZM136 270V539H419V270H136Z" />
<glyph unicode=";" horiz-adv-x="561" d="M184 -107L262 255H132V533H435V264L326 -107H184ZM136 1038V1307H419V1038H136Z" />
<glyph unicode="&lt;" horiz-adv-x="730" d="M638 238L65 607V899L638 1264V989L242 753L638 510V238Z" />
<glyph unicode="=" horiz-adv-x="722" d="M104 549V738H618V549H104ZM104 892V1076H618V892H104Z" />
<glyph unicode="&gt;" horiz-adv-x="730" d="M90 238V513L486 749L90 992V1264L664 898V605L90 238Z" />
<glyph unicode="?" horiz-adv-x="897" d="M251 494V810Q358 837 418 875T505 973T540 1122T547 1340Q547 1446 538 1497T469 1549Q404 1549 393 1498T381 1336V1160H120V1376Q120 1457 136 1529T191 1659T296 1748T465 1781Q579 1781 648 1748T754 1652T802 1496T815
1283Q815 1110 791 992T697 799T487 684V494H251ZM257 0V299H489V0H257Z" />
<glyph unicode="@" horiz-adv-x="1502" d="M1165 10Q937 -71 744 -55T409 69T189 370T110 836Q110 1054 151 1227T276 1523T493 1710T809 1775Q1003 1775 1132 1673T1327 1378T1392 910Q1392 751 1360 631T1262 445T1096 378Q1035 378 978 434T897 597Q878 486
842 424T732 361Q659 361 600 410T505 561T470 818Q470 907 484 1000T533 1173T632 1300T795 1348T1038 1283V759Q1038 665 1053 605T1111 544Q1147 544 1172 579T1210 701T1223 942Q1223 1071 1205 1190T1139 1404T1009 1554T796 1609Q620 1609 512 1516T355 1248T306
833Q306 607 360 451T521 210T783 118T1138 178L1165 10ZM758 531Q796 531 820 565T857 657T870 779V1180Q803 1207 759 1192T690 1127T654 1000T643 824Q643 684 669 608T758 531Z" />
<glyph unicode="A" horiz-adv-x="927" d="M28 0L279 1760H633L900 0H650L608 314H324L286 0H28ZM350 529H580L462 1413H458L350 529Z" />
<glyph unicode="B" horiz-adv-x="984" d="M132 0V1760H513Q646 1760 725 1720T839 1592T875 1362V1308Q875 1171 840 1083T721 959Q790 936 831 877T891 732T909 544V499Q908 323 868 213T743 51T521 0H132ZM400 208H495Q548 208 579 231T625 310T639 460V602Q639
730 615 788T513 847H400V208ZM400 1048H499Q534 1048 556 1058T590 1092T606 1161T611 1273V1379Q611 1450 598 1487T559 1537T490 1550H400V1048Z" />
<glyph unicode="C" horiz-adv-x="969" d="M493 -20Q365 -20 280 39T153 211T110 486V1253Q110 1374 130 1471T195 1637T315 1743T500 1780Q600 1780 670 1748T785 1654T850 1507T871 1312V1070H612V1295Q612 1425 590 1486T502 1548Q429 1548 405 1482T380 1296V474Q380
382 390 324T426 238T496 210Q564 210 588 274T612 477V729H875V480Q875 313 836 202T713 35T493 -20Z" />
<glyph unicode="D" horiz-adv-x="1008" d="M132 0V1760H527Q661 1760 742 1707T859 1552T896 1308L897 514Q897 341 860 227T739 56T518 0H132ZM400 208H488Q535 208 566 227T613 294T629 432L628 1301Q628 1436 595 1495T479 1554H400V208Z" />
<glyph unicode="E" horiz-adv-x="800" d="M132 0V1760H722V1529H400V1017H706V791H400V231H734V0H132Z" />
<glyph unicode="F" horiz-adv-x="791" d="M132 0V1760H736V1527H400V1059H712V825H400V0H132Z" />
<glyph unicode="G" horiz-adv-x="1000" d="M463 -18Q304 -18 207 107T110 515V1280Q110 1398 132 1491T202 1648T326 1746T509 1780Q625 1780 698 1746T810 1646T865 1485T880 1270V1145H630V1329Q630 1448 606 1498T513 1548Q438 1548 409 1490T380 1282V519Q380
353 404 282T507 210Q583 210 614 283T646 529V766H511V961H880V0H760L719 173Q697 82 626 32T463 -18Z" />
<glyph unicode="H" horiz-adv-x="1040" d="M132 0V1760H400V1048H640V1760H908V0H640V818H400V0H132Z" />
<glyph unicode="I" horiz-adv-x="543" d="M138 0V1760H406V0H138Z" />
<glyph unicode="J" horiz-adv-x="946" d="M449 -20Q276 -20 180 83T83 389V703H342V402Q342 350 348 306T376 236T441 210Q485 210 506 235T534 307T541 418V1760H809V431Q809 214 714 97T449 -20Z" />
<glyph unicode="K" horiz-adv-x="981" d="M132 0V1760H400V950L668 1760H945L653 892L968 0H685L402 822V0H132Z" />
<glyph unicode="L" horiz-adv-x="752" d="M132 0V1760H400V228H739V0H132Z" />
<glyph unicode="M" horiz-adv-x="1418" d="M132 0V1760H465L715 474L950 1760H1285V0H1046V656L1056 1258L819 8H606L359 1258L369 656V0H132Z" />
<glyph unicode="N" horiz-adv-x="1069" d="M132 0V1760H342L715 704L696 1184V1760H937V0H747L364 1093L379 631V0H132Z" />
<glyph unicode="O" horiz-adv-x="999" d="M502 -20Q365 -20 279 38T151 210T110 492V1297Q110 1449 150 1557T277 1723T505 1781Q611 1781 684 1748T802 1653T867 1501T888 1297V492Q888 324 849 210T724 38T502 -20ZM502 212Q552 212 577 242T610 333T619 489V1309Q619
1424 598 1486T505 1549Q432 1549 406 1489T380 1310V489Q380 393 388 332T423 241T502 212Z" />
<glyph unicode="P" horiz-adv-x="943" d="M132 0V1760H536Q641 1760 710 1728T820 1633T877 1478T894 1264V1227Q894 1057 865 938T759 756T545 694H400V0H132ZM400 915H492Q551 915 580 945T618 1044T628 1230V1264Q627 1407 603 1480T494 1554H400V915Z" />
<glyph unicode="Q" horiz-adv-x="999" d="M716 -292L452 -5L622 87L848 -177L716 -292ZM502 -20Q365 -20 279 38T151 210T110 492V1297Q110 1449 150 1557T277 1723T505 1781Q611 1781 684 1748T802 1653T867 1501T888 1297V492Q888 324 849 210T724 38T502 -20ZM502
212Q552 212 577 242T610 333T619 489V1309Q619 1424 598 1486T505 1549Q432 1549 406 1489T380 1310V489Q380 393 388 332T423 241T502 212Z" />
<glyph unicode="R" horiz-adv-x="991" d="M132 0V1760H575Q713 1760 781 1706T870 1548T892 1294Q892 1139 861 1051T732 932Q778 924 809 895T859 809T886 664T895 447Q895 437 895 391T895 283T897 158T900 52T905 0H637Q634 5 633 51T630 170T628 325T627 488T627
631Q627 710 616 750T574 807T486 826L400 831V0H132ZM401 1039H508Q557 1039 582 1061T617 1142T627 1312V1323Q627 1416 618 1466T581 1535T492 1554H401V1039Z" />
<glyph unicode="S" horiz-adv-x="875" d="M453 -20Q343 -20 270 14T154 115T93 277T75 495V652H329V475Q329 333 353 271T448 209Q496 209 520 231T553 303T562 433Q562 532 521 614T395 784L265 918Q211 974 168 1037T99 1177T73 1351Q73 1490 107 1586T222 1731T444
1781Q550 1781 618 1749T725 1654T780 1502T796 1297V1188H549V1314Q549 1394 541 1447T509 1526T442 1553Q400 1553 374 1535T337 1478T325 1378Q325 1323 339 1283T382 1206T454 1123L599 966Q703 854 761 733T819 463Q819 305 785 198T671 35T453 -20Z" />
<glyph unicode="T" horiz-adv-x="707" d="M224 0V1528H18V1760H689V1528H491V0H224Z" />
<glyph unicode="U" horiz-adv-x="1013" d="M508 -20Q371 -20 285 31T159 187T119 452V1760H387V457Q387 383 393 327T425 240T507 209Q564 209 589 239T621 326T627 457V1760H895V452Q895 292 856 188T731 32T508 -20Z" />
<glyph unicode="V" horiz-adv-x="930" d="M311 0L38 1760H293L408 965L479 405H486L547 965L643 1760H893L642 0H311Z" />
<glyph unicode="W" horiz-adv-x="1360" d="M261 0L46 1760H286L415 506L579 1760H795L960 506L1074 1760H1315L1113 0H846L690 1170L528 0H261Z" />
<glyph unicode="X" horiz-adv-x="897" d="M41 0L312 944L42 1760H268L443 1237L584 1760H835L569 859L856 0H624L445 541L300 0H41Z" />
<glyph unicode="Y" horiz-adv-x="878" d="M312 0V703L17 1760H273L447 1102H451L606 1760H861L580 703V0H312Z" />
<glyph unicode="Z" horiz-adv-x="748" d="M63 0V238L428 1529H96V1760H709V1543L344 231H701V0H63Z" />
<glyph unicode="[" horiz-adv-x="764" d="M179 0V1760H650V1552H445V209H650V0H179Z" />
<glyph unicode="\" horiz-adv-x="868" d="M507 0L96 1760H334L744 0H507Z" />
<glyph unicode="]" horiz-adv-x="764" d="M135 0V209H340V1552H135V1760H606V0H135Z" />
<glyph unicode="^" horiz-adv-x="1030" d="M114 836L355 1760H674L915 836H659L515 1548L371 836H114Z" />
<glyph unicode="_" horiz-adv-x="748" d="M48 -211V-28H699V-211H48Z" />
<glyph unicode="`" horiz-adv-x="459" d="M253 1640L50 2053H315L409 1640H253Z" />
<glyph unicode="a" horiz-adv-x="970" d="M376 -15Q222 -15 163 97T101 394V490Q101 610 135 685T234 807T387 889T585 964V1095Q585 1171 579 1216T552 1283T487 1304Q444 1304 422 1283T391 1217T383 1103V1036H121V1081Q121 1184 138 1265T198 1402T312 1488T495
1518Q592 1518 661 1491T773 1409T836 1272T856 1081V0H589V149Q577 106 548 69T476 8T376 -15ZM468 189Q518 189 548 225T585 298V814Q525 787 484 764T418 712T382 646T371 553V385Q371 282 392 236T468 189Z" />
<glyph unicode="b" horiz-adv-x="998" d="M608 -15Q541 -15 487 21T400 140V0H135V1775H400V1392Q423 1451 478 1484T588 1518Q707 1520 772 1463T862 1303T888 1069V434Q888 307 863 205T777 44T608 -15ZM519 197Q588 197 605 263T622 459V1073Q622 1141 616
1193T588 1274T521 1304Q480 1304 453 1284T413 1214T400 1074V456Q400 332 421 265T519 197Z" />
<glyph unicode="c" horiz-adv-x="938" d="M494 -18Q379 -18 304 17T187 120T127 283T110 500V986Q110 1152 141 1271T255 1454T497 1518Q594 1518 661 1488T769 1402T828 1265T847 1085V920H591V1094Q591 1159 585 1205T558 1276T491 1301Q446 1301 421 1276T387
1204T377 1090V414Q377 346 385 298T417 225T487 199Q532 199 554 225T584 300T591 413V591H847V439Q847 336 829 252T770 107T661 15T494 -18Z" />
<glyph unicode="d" horiz-adv-x="998" d="M386 -15Q264 -15 205 50T128 228T110 479V1090Q110 1211 139 1307T233 1461T407 1518Q471 1518 522 1488T601 1407V1775H866V0H601V139Q571 63 517 24T386 -15ZM484 196Q532 196 557 224T592 312T602 463V1063Q602 1173
581 1238T488 1303Q420 1303 399 1240T377 1060V443Q377 366 386 311T419 226T484 196Z" />
<glyph unicode="e" horiz-adv-x="945" d="M481 -18Q368 -18 296 18T183 122T126 285T110 499V1058Q110 1163 131 1248T198 1393T317 1485T493 1518Q598 1518 668 1486T778 1393T836 1247T854 1053V732H377V437Q377 328 394 262T487 196Q538 196 559 227T585 312T590
437V569H852V489Q852 368 838 274T784 115T671 16T481 -18ZM376 887H590V1079Q590 1154 583 1205T555 1283T491 1309Q438 1309 414 1278T383 1194T376 1072V887Z" />
<glyph unicode="f" horiz-adv-x="660" d="M182 0V1250H66V1441H183V1519Q183 1645 248 1714T434 1784Q496 1784 541 1775T599 1760V1593Q570 1597 539 1597Q488 1597 468 1576T447 1511V1441H599V1250H447V0H182Z" />
<glyph unicode="g" horiz-adv-x="990" d="M469 -225Q345 -227 258 -202T100 -118L193 49Q246 15 308 -6T444 -27Q520 -26 560 26T600 165V284Q574 209 521 181T391 153Q285 153 225 209T139 362T114 582V1065Q114 1196 140 1298T229 1460T402 1518Q479 1518 529
1479T600 1367V1500H865V185Q865 96 845 22T779 -107T657 -192T469 -225ZM496 354Q532 354 555 375T589 449T600 596V1087Q600 1186 576 1245T489 1304Q441 1304 418 1276T388 1200T381 1088V594Q381 483 402 419T496 354Z" />
<glyph unicode="h" horiz-adv-x="1020" d="M135 0V1775H400V1328Q420 1405 480 1461T633 1518Q764 1518 830 1432T897 1181V0H633V1156Q633 1228 606 1264T527 1301Q486 1301 458 1278T415 1213T400 1115V0H135Z" />
<glyph unicode="i" horiz-adv-x="537" d="M136 0V1500H401V0H136ZM135 1638V1868H402V1638H135Z" />
<glyph unicode="j" horiz-adv-x="556" d="M221 -197Q165 -197 125 -192T60 -180V5Q71 3 81 2T105 1Q141 1 154 21T168 69V1500H433V79Q433 -15 407 -76T334 -167T221 -197ZM164 1638V1868H431V1638H164Z" />
<glyph unicode="k" horiz-adv-x="961" d="M135 0V1775H400V818L656 1500H925L636 762L942 0H672L400 713V0H135Z" />
<glyph unicode="l" horiz-adv-x="531" d="M132 0V1775H396V0H132Z" />
<glyph unicode="m" horiz-adv-x="1504" d="M131 0V1500H396V1337Q418 1417 476 1467T636 1518Q713 1518 770 1484T858 1367Q896 1437 958 1477T1113 1518Q1259 1518 1320 1420T1381 1149V0H1117V1152Q1117 1232 1090 1266T1016 1301Q956 1301 923 1260T889 1138V0H624V1154Q624
1221 602 1261T526 1301Q457 1301 427 1249T396 1124V0H131Z" />
<glyph unicode="n" horiz-adv-x="1020" d="M131 0V1500H396V1328Q416 1405 480 1461T637 1518Q767 1518 832 1432T897 1181V0H632V1165Q632 1230 603 1267T522 1304Q481 1304 453 1282T410 1220T396 1127V0H131Z" />
<glyph unicode="o" horiz-adv-x="970" d="M486 -18Q378 -18 305 15T190 112T129 267T110 476V1037Q110 1178 146 1286T266 1456T486 1518Q590 1518 661 1483T776 1384T840 1231T860 1037V476Q860 361 843 270T783 115T668 16T486 -18ZM486 196Q531 196 554 223T585
300T593 413V1084Q593 1152 584 1201T552 1277T486 1304Q441 1304 418 1277T386 1201T377 1084V413Q377 349 385 300T417 224T486 196Z" />
<glyph unicode="p" horiz-adv-x="998" d="M132 -285V1500H397V1365Q426 1439 488 1477T613 1515Q728 1515 787 1454T867 1286T888 1048V501Q888 357 868 239T784 52T587 -18Q526 -18 476 15T397 91V-285H132ZM514 197Q581 197 601 262T621 450V1072Q621 1137 615
1189T586 1273T516 1304Q479 1304 453 1285T412 1216T397 1073V439Q397 324 419 261T514 197Z" />
<glyph unicode="q" horiz-adv-x="994" d="M597 -285V102Q577 53 525 18T411 -18Q287 -18 222 47T134 225T110 481V1048Q110 1180 134 1285T219 1453T389 1515Q452 1515 510 1485T597 1386V1500H862V-285H597ZM478 196Q520 196 546 217T585 290T597 429V1063Q597
1185 572 1244T481 1303Q413 1303 395 1239T376 1058V436Q376 333 392 265T478 196Z" />
<glyph unicode="r" horiz-adv-x="697" d="M132 0V1500H399V1333Q425 1420 489 1469T654 1518Q656 1518 656 1484T657 1406T657 1328T657 1294Q611 1294 558 1283T461 1250T399 1190V0H132Z" />
<glyph unicode="s" horiz-adv-x="862" d="M442 -19Q261 -19 173 84T85 421V518H334V397Q334 299 358 248T436 197Q488 197 513 232T538 353Q538 403 524 450T479 542T400 631L265 753Q172 837 126 934T80 1150Q80 1341 169 1429T435 1518Q549 1518 624 1476T736
1338T773 1083V1001H536V1100Q536 1199 514 1250T437 1301Q384 1301 359 1272T332 1168Q331 1128 342 1090T376 1015T438 943L580 814Q692 713 745 603T799 365Q799 176 713 79T442 -19Z" />
<glyph unicode="t" horiz-adv-x="638" d="M402 -10Q306 -10 255 14T185 92T166 229V1277H44V1469H166V1760H431V1469H577V1277H431V275Q431 240 442 222T485 198T582 192V-10H402Z" />
<glyph unicode="u" horiz-adv-x="1010" d="M389 -19Q300 -19 241 21T152 140T122 340V1500H388V381Q388 295 409 247T497 199Q567 199 592 253T618 379L619 1500H883V0H618V156Q590 80 537 31T389 -19Z" />
<glyph unicode="v" horiz-adv-x="852" d="M264 0L47 1500H297L394 702L427 343H447L475 703L558 1500H806L589 0H264Z" />
<glyph unicode="w" horiz-adv-x="1258" d="M250 0L49 1500H272L348 867L382 545H388L421 868L510 1500H585H689H746L844 880L886 545H892L921 879L988 1500H1210L1020 0H788L636 1127L474 0H250Z" />
<glyph unicode="x" horiz-adv-x="840" d="M27 0L294 783L44 1500H279L433 1067L565 1500H799L545 755L814 0H568L411 449L272 0H27Z" />
<glyph unicode="y" horiz-adv-x="859" d="M89 -265V-82H176Q220 -82 250 -75T284 -42Q291 -29 289 4T283 68L43 1500H295L391 733L431 329H453L489 733L577 1500H828L568 -64Q557 -135 538 -179T479 -244T371 -265H89Z" />
<glyph unicode="z" horiz-adv-x="732" d="M73 0V200L403 1273H98V1500H672V1309L344 222H658V0H73Z" />
<glyph unicode="{" horiz-adv-x="798" d="M614 -121Q490 -121 415 -91T306 12T272 217V492Q272 577 265 624T228 690T133 710V950Q199 950 228 969T264 1036T272 1168V1443Q272 1574 306 1647T415 1751T614 1781H674V1582Q614 1582 584 1570T545 1525T535 1430V1184Q535
1058 523 989T477 885T376 830Q443 810 477 776T523 672T535 476V230Q535 168 544 135T584 90T674 78V-121H614Z" />
<glyph unicode="|" horiz-adv-x="537" d="M150 -84V1863H393V-84H150Z" />
<glyph unicode="}" horiz-adv-x="798" d="M133 -121V78Q194 78 223 90T262 135T272 230V476Q272 602 284 671T330 775T432 830Q365 850 331 884T284 988T272 1184V1430Q272 1492 263 1525T224 1570T133 1582V1781H193Q317 1781 392 1751T501 1648T535 1443V1168Q535
1084 542 1037T579 970T674 950V710Q609 710 580 691T543 624T535 492V217Q535 86 501 13T392 -91T193 -121H133Z" />
<glyph unicode="~" horiz-adv-x="1117" d="M272 821L100 903Q138 1030 198 1099T347 1169Q386 1169 442 1155T556 1121T662 1087T735 1072Q750 1074 777 1098T823 1183L1009 1141Q1001 1111 980 1057T925 945T852 849T766 810Q723 810 671 825T564 862T458 898T367
914Q331 914 312 891T272 821Z" />
<glyph unicode="&#xa0;" horiz-adv-x="367" />
<glyph unicode="&#xa1;" horiz-adv-x="525" d="M327 1101L416 -236H132L217 1101H327ZM405 1524V1268H145V1524H405Z" />
<glyph unicode="&#xa2;" horiz-adv-x="788" d="M416 1511V1766H529V1509L416 1511ZM416 -251V4H529V-251H416ZM494 -18Q379 -18 304 17T187 120T127 283T110 500V986Q110 1152 141 1271T255 1454T497 1518Q594 1518 661 1488T769 1402T828 1265T847 1085V920H591V1094Q591
1159 585 1205T558 1276T491 1301Q446 1301 421 1276T387 1204T377 1090V414Q377 346 385 298T417 225T487 199Q532 199 554 225T584 300T591 413V591H847V439Q847 336 829 252T770 107T661 15T494 -18Z" />
<glyph unicode="&#xa3;" horiz-adv-x="1077" d="M82 0V205Q143 232 190 270T270 359T320 478T337 631Q337 667 334 706T322 783H92V973H281L228 1128Q198 1217 182 1281T166 1389Q166 1576 270 1678T592 1781Q714 1781 796 1738T921 1605T963 1381V1246H719V1393Q719
1448 705 1486T660 1546T585 1567Q535 1567 497 1553T438 1506T417 1414Q417 1366 434 1303T474 1164L532 973H865V783H582Q590 742 594 701T599 622Q599 521 577 442T514 309T415 226H954V0H82Z" />
<glyph unicode="&#xa4;" horiz-adv-x="1159" d="M274 509L125 659L216 750Q163 848 163 964Q163 1081 215 1178L125 1268L274 1418L361 1330Q458 1385 579 1385Q700 1385 797 1331L884 1418L1034 1269L944 1179Q998 1082 998 964Q998 846 944 748L1034 658L884
509L795 597Q703 545 579 545Q455 545 363 598L274 509ZM579 741Q643 741 689 771T762 853T788 966Q788 1061 732 1123T579 1186Q516 1186 470 1156T397 1076T371 964Q371 902 396 852T469 771T579 741Z" />
<glyph unicode="&#xa5;" horiz-adv-x="866" d="M94 315V468H340V619H94V770H774V619H550V468H774V315H94ZM312 0V703L17 1760H273L447 1102H451L606 1760H861L580 703V0H312Z" />
<glyph unicode="&#xa6;" horiz-adv-x="530" d="M122 -84V724H408V-84H122ZM122 931V1760H408V931H122Z" />
<glyph unicode="&#xa7;" horiz-adv-x="950" d="M488 -20Q311 -20 212 66T112 360V391H409V361Q409 271 435 246T497 220Q532 220 549 238T566 303Q566 346 533 383T447 459T336 542L270 592Q211 637 168 701T125 862Q125 936 156 1011T248 1143Q187 1199 156 1276T125
1433Q125 1548 175 1625T307 1741T487 1781Q658 1781 753 1695T848 1408V1372H578V1413Q578 1487 559 1514T497 1542Q466 1542 448 1532T421 1501T412 1451Q412 1425 433 1394T486 1334T552 1281L640 1220Q690 1186 738 1138T819 1026T852 879Q852 830 831 780T776
683T700 598Q771 533 813 465T855 293Q855 142 757 61T488 -20ZM541 735Q559 765 572 798T586 856Q586 881 571 909T521 964T426 1017Q404 985 393 956T381 902Q381 862 405 830T467 774T541 735Z" />
<glyph unicode="&#xa8;" horiz-adv-x="866" d="M534 1640V1866H816V1640H534ZM50 1640V1866H332V1640H50Z" />
<glyph unicode="&#xa9;" horiz-adv-x="1466" d="M733 204Q593 204 474 253T265 392T126 601T76 861Q76 1001 125 1120T264 1329T473 1468T733 1518Q873 1518 992 1469T1201 1330T1340 1121T1390 861Q1390 721 1341 602T1202 393T993 254T733 204ZM733 333Q841
333 932 374T1090 488T1194 656T1231 861Q1231 1007 1167 1126T990 1317T733 1389Q625 1389 534 1348T376 1234T272 1066T235 861Q235 716 299 596T476 405T733 333ZM732 423Q628 423 563 482T497 647V1048Q497 1174 554 1239T736 1304Q837 1304 892 1255T947 1104V951H782V1052Q782
1090 771 1109T736 1129Q708 1129 700 1112T692 1065V656Q692 634 703 613T736 591Q759 591 770 607T782 656V805H951V642Q951 533 903 478T732 423Z" />
<glyph unicode="&#xaa;" horiz-adv-x="927" d="M386 558Q264 558 216 646T166 882V961Q166 1057 193 1117T271 1215T393 1281T553 1343V1385Q553 1447 551 1498T533 1579T473 1610Q424 1610 408 1574T391 1454V1396H183V1432Q183 1514 197 1578T244 1688T335 1756T481
1780Q585 1780 647 1739T738 1619T767 1423V570H555V680Q545 641 499 600T386 558ZM459 726Q499 726 522 755T552 813V1210Q487 1182 450 1158T397 1099T381 1004V883Q381 801 398 764T459 726Z" />
<glyph unicode="&#xab;" horiz-adv-x="1304" d="M1133 327L642 612V887L1133 1158V890L821 749L1133 599V327ZM579 327L88 612V887L579 1158V890L267 749L579 599V327Z" />
<glyph unicode="&#xac;" horiz-adv-x="947" d="M602 439V743H97V979H826V439H602Z" />
<glyph unicode="&#xad;" horiz-adv-x="696" d="M90 509V741H606V509H90Z" />
<glyph unicode="&#xae;" horiz-adv-x="1502" d="M529 430V1282H818Q917 1282 951 1228T986 1082V1043Q986 974 968 932T896 873Q936 866 955 835T975 751V430H791V762Q791 787 784 799T760 814T719 818V430H529ZM720 965H768Q787 965 796 984T805 1043Q805 1096
789 1110T720 1124V965ZM751 334Q859 334 950 375T1108 489T1212 657T1249 862Q1249 1008 1185 1127T1008 1318T751 1390Q643 1390 552 1349T394 1235T290 1067T253 862Q253 717 317 597T494 406T751 334ZM751 205Q611 205 492 254T283 393T144 602T94 862Q94 1002
143 1121T282 1330T491 1469T751 1519Q891 1519 1010 1470T1219 1331T1358 1122T1408 862Q1408 722 1359 603T1220 394T1011 255T751 205Z" />
<glyph unicode="&#xaf;" horiz-adv-x="656" d="M50 1690V1872H606V1690H50Z" />
<glyph unicode="&#xb0;" horiz-adv-x="915" d="M457 1099Q350 1099 271 1139T148 1255T104 1437Q104 1543 147 1618T270 1734T457 1775Q564 1775 643 1735T767 1619T811 1437Q811 1332 767 1256T644 1140T457 1099ZM458 1280Q503 1280 534 1301T583 1358T600 1437Q600
1481 583 1516T535 1573T458 1594Q414 1594 382 1573T333 1517T316 1437Q316 1394 333 1358T382 1301T458 1280Z" />
<glyph unicode="&#xb1;" horiz-adv-x="854" d="M336 475V708H118V885H336V1116H518V885H738V708H518V475H336ZM156 112V295H672V112H156Z" />
<glyph unicode="&#xb2;" horiz-adv-x="831" d="M185 565V627Q185 670 199 723T238 836T291 954T351 1066T409 1160T456 1226Q482 1267 496 1329T511 1455Q511 1521 502 1557T477 1607T439 1621Q417 1621 401 1607T375 1556T365 1448V1294H183L182 1368Q182 1501
200 1592T276 1732T447 1780Q513 1780 559 1754T635 1683T677 1578T691 1450Q691 1354 667 1276T605 1129T525 997T445 864T387 716H678V565H185Z" />
<glyph unicode="&#xb3;" horiz-adv-x="856" d="M424 602Q279 602 219 683T158 927V1005H344V926Q344 835 360 796T432 756Q489 756 504 803T519 946Q519 1051 495 1104T395 1157H366V1297H392Q439 1299 466 1315T506 1368T519 1472Q519 1533 509 1566T479 1612T434
1625Q403 1625 385 1610T360 1560T352 1469V1441H164L163 1474Q164 1630 226 1704T434 1778Q577 1778 644 1702T712 1474Q712 1383 686 1320T592 1233Q666 1202 690 1128T715 945Q715 776 647 689T424 602Z" />
<glyph unicode="&#xb4;" horiz-adv-x="459" d="M50 1640L144 2053H409L206 1640H50Z" />
<glyph unicode="&#xb5;" horiz-adv-x="1010" d="M389 -19Q300 -19 241 21T152 140T122 340V1500H388V381Q388 295 409 247T497 199Q567 199 592 253T618 379L619 1500H883V0H618V156Q590 80 537 31T389 -19ZM122 483H389V-265H122V483Z" />
<glyph unicode="&#xb6;" horiz-adv-x="1119" d="M442 0V1087Q274 1106 192 1189T109 1437Q109 1537 143 1600T244 1698T410 1746T641 1760H973V0H779V1527H636V0H442Z" />
<glyph unicode="&#xb7;" horiz-adv-x="480" d="M132 750V995H363V750H132Z" />
<glyph unicode="&#xb8;" horiz-adv-x="536" d="M199 -638Q121 -638 50 -612V-501Q145 -501 194 -481T262 -429T281 -359Q281 -291 232 -250T121 -196L161 0H243L258 -141Q371 -180 428 -248T486 -396Q486 -459 453 -514T355 -603T199 -638Z" />
<glyph unicode="&#xb9;" horiz-adv-x="628" d="M238 564V1528Q206 1504 162 1492T76 1479V1609Q115 1612 162 1632T247 1685T295 1760H444V564H238Z" />
<glyph unicode="&#xba;" horiz-adv-x="908" d="M464 555Q349 555 282 602T187 737T159 950V1396Q159 1508 187 1594T283 1730T464 1780Q582 1780 647 1731T739 1596T766 1396V950Q766 829 739 740T646 603T464 555ZM464 725Q511 724 531 770T551 899V1434Q551
1515 534 1562T464 1609Q410 1609 393 1562T375 1434V899Q375 820 395 773T464 725Z" />
<glyph unicode="&#xbb;" horiz-adv-x="1304" d="M704 327V599L1016 749L704 890V1158L1195 887V612L704 327ZM151 327V599L463 749L151 890V1158L641 887V612L151 327Z" />
<glyph unicode="&#xbc;" horiz-adv-x="1535" d="M423 0L923 1767H1112L612 0H423ZM232 551V1466Q204 1443 166 1431T90 1419V1538Q124 1541 164 1559T237 1609T280 1680H412V551H232ZM1191 0V192H902V306L1127 1065H1350V324H1419V192H1350V0H1191ZM1050 324H1191V864L1050
324Z" />
<glyph unicode="&#xbd;" horiz-adv-x="1620" d="M423 0L923 1767H1112L612 0H423ZM232 551V1466Q204 1443 166 1431T90 1419V1538Q124 1541 164 1559T237 1609T280 1680H412V551H232ZM1057 0V58Q1057 108 1073 180T1131 322L1313 624Q1336 662 1350 722T1365 842Q1365
906 1357 940T1333 988T1296 1002Q1276 1002 1260 989T1234 939T1225 834V689H1055L1054 759Q1054 884 1071 971T1142 1103T1304 1148Q1387 1148 1437 1105T1510 992T1533 836Q1533 758 1518 692T1469 570L1322 325Q1297 282 1278 236T1245 138H1521V0H1057Z" />
<glyph unicode="&#xbe;" horiz-adv-x="1555" d="M474 0L974 1767H1163L663 0H474ZM316 598Q192 598 138 673T83 899V969H243V899Q243 812 257 775T322 737Q373 737 387 781T401 916Q401 1017 379 1066T290 1115H265V1250H286Q325 1251 350 1263T388 1309T401 1407Q401
1466 391 1497T364 1541T323 1553Q296 1553 280 1539T257 1492T250 1404V1378H88V1408Q88 1553 143 1622T323 1691Q445 1691 503 1620T561 1408Q561 1323 538 1264T456 1183Q520 1154 542 1085T564 915Q564 759 506 679T316 598ZM1211 0V192H922V306L1147 1065H1370V324H1439V192H1370V0H1211ZM1070
324H1211V864L1070 324Z" />
<glyph unicode="&#xbf;" horiz-adv-x="1044" d="M725 1004V688Q618 661 558 623T471 525T436 376T429 158Q429 52 438 1T507 -51Q572 -51 583 0T595 162V338H856V122Q856 41 840 -31T785 -161T680 -250T511 -283Q397 -283 328 -250T222 -154T174 2T161 215Q161
388 185 506T279 699T489 814V1004H725ZM719 1498V1199H487V1498H719Z" />
<glyph unicode="&#xc0;" horiz-adv-x="927" d="M28 0L279 1760H633L900 0H650L608 314H324L286 0H28ZM350 529H580L462 1413H458L350 529ZM447 1900L244 2313H509L603 1900H447Z" />
<glyph unicode="&#xc1;" horiz-adv-x="927" d="M28 0L279 1760H633L900 0H650L608 314H324L286 0H28ZM350 529H580L462 1413H458L350 529ZM305 1900L399 2313H664L461 1900H305Z" />
<glyph unicode="&#xc2;" horiz-adv-x="927" d="M28 0L279 1760H633L900 0H650L608 314H324L286 0H28ZM350 529H580L462 1413H458L350 529ZM114 1900L303 2237H605L793 1900H540L454 2136L368 1900H114Z" />
<glyph unicode="&#xc3;" horiz-adv-x="927" d="M28 0L279 1760H633L900 0H650L608 314H324L286 0H28ZM350 529H580L462 1413H458L350 529ZM607 1900Q563 1900 513 1920T414 1961T323 1982Q307 1982 300 1980Q284 1976 274 1962T249 1921L119 1973Q139 2041 167
2080T231 2137T311 2155Q352 2155 406 2137T511 2100T586 2081H590Q604 2083 617 2095T646 2152L788 2124L779 2076Q757 1973 716 1937T607 1900Z" />
<glyph unicode="&#xc4;" horiz-adv-x="927" d="M28 0L279 1760H633L900 0H650L608 314H324L286 0H28ZM350 529H580L462 1413H458L350 529ZM555 1900V2126H837V1900H555ZM71 1900V2126H353V1900H71Z" />
<glyph unicode="&#xc5;" horiz-adv-x="927" d="M28 0L279 1760H633L900 0H650L608 314H324L286 0H28ZM350 529H580L462 1413H458L350 529ZM454 1900Q345 1900 283 1964T221 2124Q221 2219 283 2283T454 2348Q564 2348 625 2284T687 2124Q687 2029 626 1965T454
1900ZM455 1994Q515 1994 544 2035T574 2125Q574 2174 545 2214T455 2255Q396 2255 366 2215T336 2125Q336 2076 366 2035T455 1994Z" />
<glyph unicode="&#xc6;" horiz-adv-x="1230" d="M52 0L366 1760H1152V1529H874V1017H1136V785H874V231H1164V0H606V314H366L312 0H52ZM396 512H606V1530L571 1529L396 512Z" />
<glyph unicode="&#xc7;" horiz-adv-x="969" d="M493 -20Q365 -20 280 39T153 211T110 486V1253Q110 1374 130 1471T195 1637T315 1743T500 1780Q600 1780 670 1748T785 1654T850 1507T871 1312V1070H612V1295Q612 1425 590 1486T502 1548Q429 1548 405 1482T380
1296V474Q380 382 390 324T426 238T496 210Q564 210 588 274T612 477V729H875V480Q875 313 836 202T713 35T493 -20ZM482 -638Q404 -638 333 -612V-501Q428 -501 477 -481T545 -429T564 -359Q564 -291 515 -250T404 -196L444 0H526L541 -141Q654 -180 711 -248T769
-396Q769 -459 736 -514T638 -603T482 -638Z" />
<glyph unicode="&#xc8;" horiz-adv-x="800" d="M132 0V1760H722V1529H400V1017H706V791H400V231H734V0H132ZM413 1900L210 2313H475L569 1900H413Z" />
<glyph unicode="&#xc9;" horiz-adv-x="800" d="M132 0V1760H722V1529H400V1017H706V791H400V231H734V0H132ZM271 1900L365 2313H630L427 1900H271Z" />
<glyph unicode="&#xca;" horiz-adv-x="800" d="M132 0V1760H722V1529H400V1017H706V791H400V231H734V0H132ZM80 1900L269 2237H571L759 1900H506L420 2136L334 1900H80Z" />
<glyph unicode="&#xcb;" horiz-adv-x="800" d="M132 0V1760H722V1529H400V1017H706V791H400V231H734V0H132ZM521 1900V2126H803V1900H521ZM37 1900V2126H319V1900H37Z" />
<glyph unicode="&#xcc;" horiz-adv-x="543" d="M138 0V1760H406V0H138ZM265 1900L62 2313H327L421 1900H265Z" />
<glyph unicode="&#xcd;" horiz-adv-x="543" d="M138 0V1760H406V0H138ZM123 1900L217 2313H482L279 1900H123Z" />
<glyph unicode="&#xce;" horiz-adv-x="543" d="M138 0V1760H406V0H138ZM-68 1900L121 2237H423L611 1900H358L272 2136L186 1900H-68Z" />
<glyph unicode="&#xcf;" horiz-adv-x="543" d="M138 0V1760H406V0H138ZM373 1900V2126H655V1900H373ZM-111 1900V2126H171V1900H-111Z" />
<glyph unicode="&#xd0;" horiz-adv-x="1008" d="M132 0V1760H527Q661 1760 742 1707T859 1552T896 1308L897 514Q897 341 860 227T739 56T518 0H132ZM400 208H488Q535 208 566 227T613 294T629 432L628 1301Q628 1436 595 1495T479 1554H400V208ZM8 826V935H558V826H8Z" />
<glyph unicode="&#xd1;" horiz-adv-x="1069" d="M132 0V1760H342L715 704L696 1184V1760H937V0H747L364 1093L379 631V0H132ZM688 1900Q644 1900 594 1920T495 1961T404 1982Q388 1982 381 1980Q365 1976 355 1962T330 1921L200 1973Q220 2041 248 2080T312 2137T392
2155Q433 2155 487 2137T592 2100T667 2081H671Q685 2083 698 2095T727 2152L869 2124L860 2076Q838 1973 797 1937T688 1900Z" />
<glyph unicode="&#xd2;" horiz-adv-x="999" d="M502 -20Q365 -20 279 38T151 210T110 492V1297Q110 1449 150 1557T277 1723T505 1781Q611 1781 684 1748T802 1653T867 1501T888 1297V492Q888 324 849 210T724 38T502 -20ZM502 212Q552 212 577 242T610 333T619
489V1309Q619 1424 598 1486T505 1549Q432 1549 406 1489T380 1310V489Q380 393 388 332T423 241T502 212ZM493 1900L290 2313H555L649 1900H493Z" />
<glyph unicode="&#xd3;" horiz-adv-x="999" d="M502 -20Q365 -20 279 38T151 210T110 492V1297Q110 1449 150 1557T277 1723T505 1781Q611 1781 684 1748T802 1653T867 1501T888 1297V492Q888 324 849 210T724 38T502 -20ZM502 212Q552 212 577 242T610 333T619
489V1309Q619 1424 598 1486T505 1549Q432 1549 406 1489T380 1310V489Q380 393 388 332T423 241T502 212ZM351 1900L445 2313H710L507 1900H351Z" />
<glyph unicode="&#xd4;" horiz-adv-x="999" d="M502 -20Q365 -20 279 38T151 210T110 492V1297Q110 1449 150 1557T277 1723T505 1781Q611 1781 684 1748T802 1653T867 1501T888 1297V492Q888 324 849 210T724 38T502 -20ZM502 212Q552 212 577 242T610 333T619
489V1309Q619 1424 598 1486T505 1549Q432 1549 406 1489T380 1310V489Q380 393 388 332T423 241T502 212ZM160 1900L349 2237H651L839 1900H586L500 2136L414 1900H160Z" />
<glyph unicode="&#xd5;" horiz-adv-x="999" d="M502 -20Q365 -20 279 38T151 210T110 492V1297Q110 1449 150 1557T277 1723T505 1781Q611 1781 684 1748T802 1653T867 1501T888 1297V492Q888 324 849 210T724 38T502 -20ZM502 212Q552 212 577 242T610 333T619
489V1309Q619 1424 598 1486T505 1549Q432 1549 406 1489T380 1310V489Q380 393 388 332T423 241T502 212ZM653 1900Q609 1900 559 1920T460 1961T369 1982Q353 1982 346 1980Q330 1976 320 1962T295 1921L165 1973Q185 2041 213 2080T277 2137T357 2155Q398 2155
452 2137T557 2100T632 2081H636Q650 2083 663 2095T692 2152L834 2124L825 2076Q803 1973 762 1937T653 1900Z" />
<glyph unicode="&#xd6;" horiz-adv-x="999" d="M502 -20Q365 -20 279 38T151 210T110 492V1297Q110 1449 150 1557T277 1723T505 1781Q611 1781 684 1748T802 1653T867 1501T888 1297V492Q888 324 849 210T724 38T502 -20ZM502 212Q552 212 577 242T610 333T619
489V1309Q619 1424 598 1486T505 1549Q432 1549 406 1489T380 1310V489Q380 393 388 332T423 241T502 212ZM601 1900V2126H883V1900H601ZM117 1900V2126H399V1900H117Z" />
<glyph unicode="&#xd7;" horiz-adv-x="710" d="M208 314L44 478L191 625L44 772L208 936L355 789L502 936L666 772L519 625L666 478L502 314L355 461L208 314Z" />
<glyph unicode="&#xd8;" horiz-adv-x="900" d="M193 -206L94 -166L822 1906L929 1870L193 -206ZM502 -20Q365 -20 279 38T151 210T110 492V1297Q110 1449 150 1557T277 1723T505 1781Q611 1781 684 1748T802 1653T867 1501T888 1297V492Q888 324 849 210T724 38T502
-20ZM502 212Q552 212 577 242T610 333T619 489V1309Q619 1424 598 1486T505 1549Q432 1549 406 1489T380 1310V489Q380 393 388 332T423 241T502 212Z" />
<glyph unicode="&#xd9;" horiz-adv-x="1013" d="M508 -20Q371 -20 285 31T159 187T119 452V1760H387V457Q387 383 393 327T425 240T507 209Q564 209 589 239T621 326T627 457V1760H895V452Q895 292 856 188T731 32T508 -20ZM500 1900L297 2313H562L656 1900H500Z" />
<glyph unicode="&#xda;" horiz-adv-x="1013" d="M508 -20Q371 -20 285 31T159 187T119 452V1760H387V457Q387 383 393 327T425 240T507 209Q564 209 589 239T621 326T627 457V1760H895V452Q895 292 856 188T731 32T508 -20ZM358 1900L452 2313H717L514 1900H358Z" />
<glyph unicode="&#xdb;" horiz-adv-x="1013" d="M508 -20Q371 -20 285 31T159 187T119 452V1760H387V457Q387 383 393 327T425 240T507 209Q564 209 589 239T621 326T627 457V1760H895V452Q895 292 856 188T731 32T508 -20ZM167 1900L356 2237H658L846 1900H593L507
2136L421 1900H167Z" />
<glyph unicode="&#xdc;" horiz-adv-x="1013" d="M508 -20Q371 -20 285 31T159 187T119 452V1760H387V457Q387 383 393 327T425 240T507 209Q564 209 589 239T621 326T627 457V1760H895V452Q895 292 856 188T731 32T508 -20ZM608 1900V2126H890V1900H608ZM124 1900V2126H406V1900H124Z"
/>
<glyph unicode="&#xdd;" horiz-adv-x="878" d="M312 0V703L17 1760H273L447 1102H451L606 1760H861L580 703V0H312ZM290 1900L384 2313H649L446 1900H290Z" />
<glyph unicode="&#xde;" horiz-adv-x="982" d="M146 0V1760H414V1497H550Q656 1497 725 1463T834 1363T891 1200T910 981V953Q910 783 880 661T774 473T559 408H414V0H146ZM414 630H506Q565 630 594 663T632 767T642 955V979Q642 1128 619 1209T508 1290H414V630Z" />
<glyph unicode="&#xdf;" horiz-adv-x="1032" d="M135 0V1417Q135 1508 154 1576T216 1690T332 1758T511 1781Q643 1781 728 1747T854 1633T896 1417V1220Q896 1143 881 1089T831 999T737 945Q822 925 869 876T936 747T956 553V476Q956 364 941 276T887 126T777
32T593 0H489V212Q569 212 614 226T677 281T695 395V656Q695 756 653 794T498 832V1032Q578 1032 606 1066T635 1170V1438Q635 1507 609 1534T517 1562Q459 1562 430 1535T400 1438V0H135Z" />
<glyph unicode="&#xe0;" horiz-adv-x="970" d="M376 -15Q222 -15 163 97T101 394V490Q101 610 135 685T234 807T387 889T585 964V1095Q585 1171 579 1216T552 1283T487 1304Q444 1304 422 1283T391 1217T383 1103V1036H121V1081Q121 1184 138 1265T198 1402T312
1488T495 1518Q592 1518 661 1491T773 1409T836 1272T856 1081V0H589V149Q577 106 548 69T476 8T376 -15ZM468 189Q518 189 548 225T585 298V814Q525 787 484 764T418 712T382 646T371 553V385Q371 282 392 236T468 189ZM478 1640L275 2053H540L634 1640H478Z"
/>
<glyph unicode="&#xe1;" horiz-adv-x="970" d="M376 -15Q222 -15 163 97T101 394V490Q101 610 135 685T234 807T387 889T585 964V1095Q585 1171 579 1216T552 1283T487 1304Q444 1304 422 1283T391 1217T383 1103V1036H121V1081Q121 1184 138 1265T198 1402T312
1488T495 1518Q592 1518 661 1491T773 1409T836 1272T856 1081V0H589V149Q577 106 548 69T476 8T376 -15ZM468 189Q518 189 548 225T585 298V814Q525 787 484 764T418 712T382 646T371 553V385Q371 282 392 236T468 189ZM336 1640L430 2053H695L492 1640H336Z"
/>
<glyph unicode="&#xe2;" horiz-adv-x="970" d="M376 -15Q222 -15 163 97T101 394V490Q101 610 135 685T234 807T387 889T585 964V1095Q585 1171 579 1216T552 1283T487 1304Q444 1304 422 1283T391 1217T383 1103V1036H121V1081Q121 1184 138 1265T198 1402T312
1488T495 1518Q592 1518 661 1491T773 1409T836 1272T856 1081V0H589V149Q577 106 548 69T476 8T376 -15ZM468 189Q518 189 548 225T585 298V814Q525 787 484 764T418 712T382 646T371 553V385Q371 282 392 236T468 189ZM145 1640L334 1977H636L824 1640H571L485
1876L399 1640H145Z" />
<glyph unicode="&#xe3;" horiz-adv-x="970" d="M376 -15Q222 -15 163 97T101 394V490Q101 610 135 685T234 807T387 889T585 964V1095Q585 1171 579 1216T552 1283T487 1304Q444 1304 422 1283T391 1217T383 1103V1036H121V1081Q121 1184 138 1265T198 1402T312
1488T495 1518Q592 1518 661 1491T773 1409T836 1272T856 1081V0H589V149Q577 106 548 69T476 8T376 -15ZM468 189Q518 189 548 225T585 298V814Q525 787 484 764T418 712T382 646T371 553V385Q371 282 392 236T468 189ZM638 1640Q594 1640 544 1660T445 1701T354
1722Q338 1722 331 1720Q315 1716 305 1702T280 1661L150 1713Q170 1781 198 1820T262 1877T342 1895Q383 1895 437 1877T542 1840T617 1821H621Q635 1823 648 1835T677 1892L819 1864L810 1816Q788 1713 747 1677T638 1640Z" />
<glyph unicode="&#xe4;" horiz-adv-x="970" d="M376 -15Q222 -15 163 97T101 394V490Q101 610 135 685T234 807T387 889T585 964V1095Q585 1171 579 1216T552 1283T487 1304Q444 1304 422 1283T391 1217T383 1103V1036H121V1081Q121 1184 138 1265T198 1402T312
1488T495 1518Q592 1518 661 1491T773 1409T836 1272T856 1081V0H589V149Q577 106 548 69T476 8T376 -15ZM468 189Q518 189 548 225T585 298V814Q525 787 484 764T418 712T382 646T371 553V385Q371 282 392 236T468 189ZM586 1640V1866H868V1640H586ZM102 1640V1866H384V1640H102Z"
/>
<glyph unicode="&#xe5;" horiz-adv-x="970" d="M376 -15Q222 -15 163 97T101 394V490Q101 610 135 685T234 807T387 889T585 964V1095Q585 1171 579 1216T552 1283T487 1304Q444 1304 422 1283T391 1217T383 1103V1036H121V1081Q121 1184 138 1265T198 1402T312
1488T495 1518Q592 1518 661 1491T773 1409T836 1272T856 1081V0H589V149Q577 106 548 69T476 8T376 -15ZM468 189Q518 189 548 225T585 298V814Q525 787 484 764T418 712T382 646T371 553V385Q371 282 392 236T468 189ZM485 1640Q376 1640 314 1704T252 1864Q252
1959 314 2023T485 2088Q595 2088 656 2024T718 1864Q718 1769 657 1705T485 1640ZM486 1734Q546 1734 575 1775T605 1865Q605 1914 576 1954T486 1995Q427 1995 397 1955T367 1865Q367 1816 397 1775T486 1734Z" />
<glyph unicode="&#xe6;" horiz-adv-x="1443" d="M985 -18Q885 -18 818 22T718 128Q695 91 653 59T556 6T438 -15Q274 -15 191 96T107 406V506Q109 622 144 694T242 812T394 893T592 969V1061Q592 1133 586 1188T558 1273T492 1304Q451 1304 429 1284T398 1221T389
1109V1036H128V1081Q128 1184 145 1265T204 1402T318 1488T501 1518Q586 1518 641 1491T730 1409Q768 1462 828 1490T977 1518Q1082 1518 1152 1486T1262 1393T1320 1247T1338 1053V726H860V472Q860 380 869 319T902 227T971 196Q1022 196 1044 233T1071 332T1075
464L1074 569H1337V499Q1337 381 1324 286T1275 123T1169 19T985 -18ZM474 197Q524 197 554 233T591 306V803Q530 776 489 753T423 703T388 638T377 544V393Q377 290 398 244T474 197ZM860 906H1074V1079Q1074 1154 1067 1205T1039 1283T975 1309Q922 1309 898
1277T867 1189T860 1057V906Z" />
<glyph unicode="&#xe7;" horiz-adv-x="938" d="M494 -18Q379 -18 304 17T187 120T127 283T110 500V986Q110 1152 141 1271T255 1454T497 1518Q594 1518 661 1488T769 1402T828 1265T847 1085V920H591V1094Q591 1159 585 1205T558 1276T491 1301Q446 1301 421 1276T387
1204T377 1090V414Q377 346 385 298T417 225T487 199Q532 199 554 225T584 300T591 413V591H847V439Q847 336 829 252T770 107T661 15T494 -18ZM466 -638Q388 -638 317 -612V-501Q412 -501 461 -481T529 -429T548 -359Q548 -291 499 -250T388 -196L428 0H510L525
-141Q638 -180 695 -248T753 -396Q753 -459 720 -514T622 -603T466 -638Z" />
<glyph unicode="&#xe8;" horiz-adv-x="945" d="M481 -18Q368 -18 296 18T183 122T126 285T110 499V1058Q110 1163 131 1248T198 1393T317 1485T493 1518Q598 1518 668 1486T778 1393T836 1247T854 1053V732H377V437Q377 328 394 262T487 196Q538 196 559 227T585
312T590 437V569H852V489Q852 368 838 274T784 115T671 16T481 -18ZM376 887H590V1079Q590 1154 583 1205T555 1283T491 1309Q438 1309 414 1278T383 1194T376 1072V887ZM466 1640L263 2053H528L622 1640H466Z" />
<glyph unicode="&#xe9;" horiz-adv-x="945" d="M481 -18Q368 -18 296 18T183 122T126 285T110 499V1058Q110 1163 131 1248T198 1393T317 1485T493 1518Q598 1518 668 1486T778 1393T836 1247T854 1053V732H377V437Q377 328 394 262T487 196Q538 196 559 227T585
312T590 437V569H852V489Q852 368 838 274T784 115T671 16T481 -18ZM376 887H590V1079Q590 1154 583 1205T555 1283T491 1309Q438 1309 414 1278T383 1194T376 1072V887ZM324 1640L418 2053H683L480 1640H324Z" />
<glyph unicode="&#xea;" horiz-adv-x="945" d="M481 -18Q368 -18 296 18T183 122T126 285T110 499V1058Q110 1163 131 1248T198 1393T317 1485T493 1518Q598 1518 668 1486T778 1393T836 1247T854 1053V732H377V437Q377 328 394 262T487 196Q538 196 559 227T585
312T590 437V569H852V489Q852 368 838 274T784 115T671 16T481 -18ZM376 887H590V1079Q590 1154 583 1205T555 1283T491 1309Q438 1309 414 1278T383 1194T376 1072V887ZM133 1640L322 1977H624L812 1640H559L473 1876L387 1640H133Z" />
<glyph unicode="&#xeb;" horiz-adv-x="945" d="M481 -18Q368 -18 296 18T183 122T126 285T110 499V1058Q110 1163 131 1248T198 1393T317 1485T493 1518Q598 1518 668 1486T778 1393T836 1247T854 1053V732H377V437Q377 328 394 262T487 196Q538 196 559 227T585
312T590 437V569H852V489Q852 368 838 274T784 115T671 16T481 -18ZM376 887H590V1079Q590 1154 583 1205T555 1283T491 1309Q438 1309 414 1278T383 1194T376 1072V887ZM574 1640V1866H856V1640H574ZM90 1640V1866H372V1640H90Z" />
<glyph unicode="&#xec;" horiz-adv-x="537" d="M136 0V1500H401V0H136ZM262 1640L59 2053H324L418 1640H262Z" />
<glyph unicode="&#xed;" horiz-adv-x="537" d="M136 0V1500H401V0H136ZM120 1640L214 2053H479L276 1640H120Z" />
<glyph unicode="&#xee;" horiz-adv-x="537" d="M136 0V1500H401V0H136ZM185 1640L374 1977H676L864 1640H611L525 1876L439 1640H185Z" />
<glyph unicode="&#xef;" horiz-adv-x="537" d="M136 0V1500H401V0H136ZM370 1640V1866H652V1640H370ZM-114 1640V1866H168V1640H-114Z" />
<glyph unicode="&#xf0;" horiz-adv-x="1013" d="M491 -21Q340 -21 254 36T131 205T95 483V586Q95 761 129 875T240 1045T441 1098Q499 1097 538 1083T605 1042Q605 1055 603 1086T596 1158T586 1241T571 1320T551 1378L342 1262L277 1399L466 1505Q424 1553 372
1583T269 1630L406 1781Q484 1769 556 1731T687 1625L886 1735L952 1598L773 1500Q792 1465 809 1405T839 1272T863 1121T878 976T883 857V527Q883 351 853 229T739 43T491 -21ZM489 212Q563 212 589 270T615 456V776Q609 817 574 845T482 873Q436 873 410 847T374
764T363 613V434Q363 349 374 301T413 232T489 212Z" />
<glyph unicode="&#xf1;" horiz-adv-x="1020" d="M131 0V1500H396V1328Q416 1405 480 1461T637 1518Q767 1518 832 1432T897 1181V0H632V1165Q632 1230 603 1267T522 1304Q481 1304 453 1282T410 1220T396 1127V0H131ZM663 1640Q619 1640 569 1660T470 1701T379
1722Q363 1722 356 1720Q340 1716 330 1702T305 1661L175 1713Q195 1781 223 1820T287 1877T367 1895Q408 1895 462 1877T567 1840T642 1821H646Q660 1823 673 1835T702 1892L844 1864L835 1816Q813 1713 772 1677T663 1640Z" />
<glyph unicode="&#xf2;" horiz-adv-x="970" d="M486 -18Q378 -18 305 15T190 112T129 267T110 476V1037Q110 1178 146 1286T266 1456T486 1518Q590 1518 661 1483T776 1384T840 1231T860 1037V476Q860 361 843 270T783 115T668 16T486 -18ZM486 196Q531 196 554
223T585 300T593 413V1084Q593 1152 584 1201T552 1277T486 1304Q441 1304 418 1277T386 1201T377 1084V413Q377 349 385 300T417 224T486 196ZM478 1640L275 2053H540L634 1640H478Z" />
<glyph unicode="&#xf3;" horiz-adv-x="970" d="M486 -18Q378 -18 305 15T190 112T129 267T110 476V1037Q110 1178 146 1286T266 1456T486 1518Q590 1518 661 1483T776 1384T840 1231T860 1037V476Q860 361 843 270T783 115T668 16T486 -18ZM486 196Q531 196 554
223T585 300T593 413V1084Q593 1152 584 1201T552 1277T486 1304Q441 1304 418 1277T386 1201T377 1084V413Q377 349 385 300T417 224T486 196ZM336 1640L430 2053H695L492 1640H336Z" />
<glyph unicode="&#xf4;" horiz-adv-x="970" d="M486 -18Q378 -18 305 15T190 112T129 267T110 476V1037Q110 1178 146 1286T266 1456T486 1518Q590 1518 661 1483T776 1384T840 1231T860 1037V476Q860 361 843 270T783 115T668 16T486 -18ZM486 196Q531 196 554
223T585 300T593 413V1084Q593 1152 584 1201T552 1277T486 1304Q441 1304 418 1277T386 1201T377 1084V413Q377 349 385 300T417 224T486 196ZM145 1640L334 1977H636L824 1640H571L485 1876L399 1640H145Z" />
<glyph unicode="&#xf5;" horiz-adv-x="970" d="M486 -18Q378 -18 305 15T190 112T129 267T110 476V1037Q110 1178 146 1286T266 1456T486 1518Q590 1518 661 1483T776 1384T840 1231T860 1037V476Q860 361 843 270T783 115T668 16T486 -18ZM486 196Q531 196 554
223T585 300T593 413V1084Q593 1152 584 1201T552 1277T486 1304Q441 1304 418 1277T386 1201T377 1084V413Q377 349 385 300T417 224T486 196ZM638 1640Q594 1640 544 1660T445 1701T354 1722Q338 1722 331 1720Q315 1716 305 1702T280 1661L150 1713Q170 1781
198 1820T262 1877T342 1895Q383 1895 437 1877T542 1840T617 1821H621Q635 1823 648 1835T677 1892L819 1864L810 1816Q788 1713 747 1677T638 1640Z" />
<glyph unicode="&#xf6;" horiz-adv-x="970" d="M486 -18Q378 -18 305 15T190 112T129 267T110 476V1037Q110 1178 146 1286T266 1456T486 1518Q590 1518 661 1483T776 1384T840 1231T860 1037V476Q860 361 843 270T783 115T668 16T486 -18ZM486 196Q531 196 554
223T585 300T593 413V1084Q593 1152 584 1201T552 1277T486 1304Q441 1304 418 1277T386 1201T377 1084V413Q377 349 385 300T417 224T486 196ZM586 1640V1866H868V1640H586ZM102 1640V1866H384V1640H102Z" />
<glyph unicode="&#xf7;" horiz-adv-x="804" d="M94 638V870H710V638H94ZM253 237V535H551V237H253ZM253 976V1274H551V976H253Z" />
<glyph unicode="&#xf8;" horiz-adv-x="879" d="M284 -173L184 -145L693 1672L794 1644L284 -173ZM486 -18Q378 -18 305 15T190 112T129 267T110 476V1037Q110 1178 146 1286T266 1456T486 1518Q590 1518 661 1483T776 1384T840 1231T860 1037V476Q860 361 843
270T783 115T668 16T486 -18ZM486 196Q531 196 554 223T585 300T593 413V1084Q593 1152 584 1201T552 1277T486 1304Q441 1304 418 1277T386 1201T377 1084V413Q377 349 385 300T417 224T486 196Z" />
<glyph unicode="&#xf9;" horiz-adv-x="1010" d="M389 -19Q300 -19 241 21T152 140T122 340V1500H388V381Q388 295 409 247T497 199Q567 199 592 253T618 379L619 1500H883V0H618V156Q590 80 537 31T389 -19ZM498 1640L295 2053H560L654 1640H498Z" />
<glyph unicode="&#xfa;" horiz-adv-x="1010" d="M389 -19Q300 -19 241 21T152 140T122 340V1500H388V381Q388 295 409 247T497 199Q567 199 592 253T618 379L619 1500H883V0H618V156Q590 80 537 31T389 -19ZM356 1640L450 2053H715L512 1640H356Z" />
<glyph unicode="&#xfb;" horiz-adv-x="1010" d="M389 -19Q300 -19 241 21T152 140T122 340V1500H388V381Q388 295 409 247T497 199Q567 199 592 253T618 379L619 1500H883V0H618V156Q590 80 537 31T389 -19ZM165 1640L354 1977H656L844 1640H591L505 1876L419 1640H165Z" />
<glyph unicode="&#xfc;" horiz-adv-x="1010" d="M389 -19Q300 -19 241 21T152 140T122 340V1500H388V381Q388 295 409 247T497 199Q567 199 592 253T618 379L619 1500H883V0H618V156Q590 80 537 31T389 -19ZM606 1640V1866H888V1640H606ZM122 1640V1866H404V1640H122Z" />
<glyph unicode="&#xfd;" horiz-adv-x="859" d="M89 -265V-82H176Q220 -82 250 -75T284 -42Q291 -29 289 4T283 68L43 1500H295L391 733L431 329H453L489 733L577 1500H828L568 -64Q557 -135 538 -179T479 -244T371 -265H89ZM281 1640L375 2053H640L437 1640H281Z" />
<glyph unicode="&#xfe;" horiz-adv-x="1000" d="M133 -285V1775H399V1365Q428 1439 488 1477T612 1515Q727 1515 785 1454T864 1286T885 1048V501Q885 357 866 239T782 52T586 -18Q525 -18 477 15T399 91V-285H133ZM515 198Q582 198 601 263T620 451V1069Q620
1134 614 1186T586 1270T517 1301Q480 1301 454 1282T413 1213T399 1070V440Q399 325 420 262T515 198Z" />
<glyph unicode="&#xff;" horiz-adv-x="859" d="M89 -265V-82H176Q220 -82 250 -75T284 -42Q291 -29 289 4T283 68L43 1500H295L391 733L431 329H453L489 733L577 1500H828L568 -64Q557 -135 538 -179T479 -244T371 -265H89ZM787 1640V1866H1069V1640H787ZM303
1640V1866H585V1640H303Z" />
<glyph unicode="&#x2013;" horiz-adv-x="756" d="M120 509V741H636V509H120Z" />
<glyph unicode="&#x2014;" horiz-adv-x="1153" d="M60 509V741H1092V509H60Z" />
<glyph unicode="&#x2018;" horiz-adv-x="586" d="M119 1065V1336L255 1775H408L315 1345H468V1065H119Z" />
<glyph unicode="&#x2019;" horiz-adv-x="586" d="M188 1065L282 1494H129V1775H478V1503L342 1065H188Z" />
<glyph unicode="&#x201a;" horiz-adv-x="484" d="M138 -324L216 0H80V258H411V9L302 -324H138Z" />
<glyph unicode="&#x201c;" horiz-adv-x="1030" d="M606 1141V1394L716 1775H880L802 1403H937V1141H606ZM140 1141V1394L250 1775H414L336 1403H471V1141H140Z" />
<glyph unicode="&#x201d;" horiz-adv-x="1077" d="M678 1141L756 1513H621V1775H952V1522L842 1141H678ZM212 1141L290 1513H155V1775H486V1522L376 1141H212Z" />
<glyph unicode="&#x201e;" horiz-adv-x="1016" d="M674 -373L752 0H617V261H947V8L838 -373H674ZM208 -373L286 0H151V261H481V8L372 -373H208Z" />
<glyph unicode="&#x2022;" horiz-adv-x="861" d="M430 451Q302 451 234 528T165 741Q165 876 233 953T430 1031Q558 1031 627 954T696 741Q696 606 627 529T430 451Z" />
<glyph unicode="&#x2039;" horiz-adv-x="606" d="M548 327L57 612V887L548 1158V890L236 749L548 599V327Z" />
<glyph unicode="&#x203a;" horiz-adv-x="727" d="M139 327V599L451 749L139 890V1158L630 887V612L139 327Z" />
</font>
</defs>
</svg>
